<?xml version="1.0" encoding="UTF-8" standalone="no"?>
<svg
   width="1000"
   height="1000"
   viewBox="0 0 1000 1000"
   version="1.1"
   xml:space="preserve"
   id="SVGRoot"
   inkscape:version="1.4 (86a8ad7, 2024-10-11)"
   sodipodi:docname="Temp-Frame.svg"
   xmlns:inkscape="http://www.inkscape.org/namespaces/inkscape"
   xmlns:sodipodi="http://sodipodi.sourceforge.net/DTD/sodipodi-0.dtd"
   xmlns:xlink="http://www.w3.org/1999/xlink"
   xmlns="http://www.w3.org/2000/svg"
   xmlns:svg="http://www.w3.org/2000/svg"><defs
   id="defs48" />
<sodipodi:namedview
   pagecolor="#a9a9a9"
   bordercolor="#292929"
   borderopacity="1"
   inkscape:showpageshadow="2"
   inkscape:pageopacity="0.0"
   inkscape:pagecheckerboard="false"
   inkscape:deskcolor="#232323"
   id="namedview1"
   showguides="false"
   inkscape:zoom="1.17"
   inkscape:cx="347.4359"
   inkscape:cy="610.68376"
   inkscape:window-width="2560"
   inkscape:window-height="1361"
   inkscape:window-x="2551"
   inkscape:window-y="-9"
   inkscape:window-maximized="1"
   inkscape:current-layer="SVGRoot"
   showgrid="true"><inkscape:grid
     id="grid51"
     units="px"
     originx="0"
     originy="0"
     spacingx="10"
     spacingy="10"
     empcolor="#0099e5"
     empopacity="0.30196078"
     color="#00aaff"
     opacity="0.301961"
     empspacing="5"
     enabled="true"
     visible="true"
     dotted="true"
     snapvisiblegridlinesonly="true" /></sodipodi:namedview>
<style
   type="text/css"
   id="style1">
g.prefab path {
  vector-effect:non-scaling-stroke;
  -inkscape-stroke:hairline;
  fill: none;
  fill-opacity: 1;
  stroke-opacity: 1;
  stroke: #00349c;
}
</style>

<rect
   style="fill:none;fill-opacity:1"
   id="rect57"
   width="50"
   height="45"
   x="0"
   y="0" /><path
   style="fill:#000000;fill-opacity:1"
   d="M 0,0 H 199.6063 L 170,30 H 30 V 170 L 0,200 Z"
   id="path58"
   sodipodi:nodetypes="ccccccc" /><path
   style="fill:#000000;fill-opacity:1"
   d="M 1000,0 H 800.3937 L 830,30 h 140 v 140 l 30,30 z"
   id="path58-9"
   sodipodi:nodetypes="ccccccc" /><use
   x="0"
   y="0"
   xlink:href="#path58-9"
   id="use58"
   transform="matrix(1,0,0,-1,0,1000)" /><use
   x="0"
   y="0"
   xlink:href="#use58"
   id="use59"
   transform="matrix(-1,0,0,1,1000.1969,0)" /><path
   style="fill:#000000;fill-opacity:1"
   d="M 499.85531,400 490,410 l -5.14469,60 -15,15 L 410,490 399.85531,500 410,510 l 59.85531,5 15,15 L 490,590 499.85531,600 510,590 l 4.85531,-60 15,-15 L 590,510 600.14469,500 590,490 l -60.14469,-5 -15,-15 L 510,410 Z"
   id="path61"
   sodipodi:nodetypes="ccccccccccccccccccccc" /><path
   style="fill:#000000;fill-opacity:1"
   d="m 980,190 10,10 v 600 l -10,10 z"
   id="path63"
   sodipodi:nodetypes="ccccc" /><path
   style="fill:#000000;fill-opacity:1"
   d="m 790,990 10,-10 H 190.19685 l 10,10 z"
   id="path64"
   sodipodi:nodetypes="ccccc" /><path
   style="fill:#000000;fill-opacity:1"
   d="M 10,700 V 200 l 10,-10 v 520 z"
   id="path65" /><path
   style="fill:#000000;fill-opacity:1"
   d="m 200,10 h 590 l 10,10 H 190 Z"
   id="path66"
   sodipodi:nodetypes="ccccc" /><path
   style="fill:#000000;fill-opacity:1"
   d="m 950,460 -40,40 40,40 z"
   id="path67" /><path
   style="fill:#000000;fill-opacity:1"
   d="M 850,850 V 830"
   id="path68" /><path
   style="fill:#000000;fill-opacity:1"
   d="m 800,800 v -10 l -30,-40 v -20 h -20 l -40,-30 h -10 v 10 l 30,40 v 20 h 20 l 40,30 z"
   id="path69"
   sodipodi:nodetypes="ccccccccccccc" /><path
   style="fill:#000000;fill-opacity:1"
   d="m 850,850 h 10 l 90,90 v 10 L 940,950.68376 850,860 Z"
   id="path70"
   sodipodi:nodetypes="ccccccc" /><path
   style="fill:#000000;fill-opacity:1"
   d="m 650,650 v -10 l -90,-90 h -10 v 10 l 90,90 z"
   id="path71"
   sodipodi:nodetypes="ccccccc" /><path
   style="fill:#000000;fill-opacity:1"
   d="m 750,490 -20,10 20,10 20,-10 z"
   id="path72"
   sodipodi:nodetypes="ccccc" /><use
   x="0"
   y="0"
   xlink:href="#path67"
   id="use72"
   transform="rotate(-90,500.07234,499.92766)" /><use
   x="0"
   y="0"
   xlink:href="#path69"
   id="use73"
   transform="rotate(-90,500.07234,499.92766)" /><use
   x="0"
   y="0"
   xlink:href="#path70"
   id="use74"
   transform="rotate(-90,500.07234,499.92766)" /><use
   x="0"
   y="0"
   xlink:href="#path71"
   id="use75"
   transform="rotate(-90,500.07234,499.92766)" /><use
   x="0"
   y="0"
   xlink:href="#path72"
   id="use76"
   transform="rotate(-90,500.07234,499.92766)" /><use
   x="0"
   y="0"
   xlink:href="#path67"
   id="use72-2"
   transform="rotate(180,500,500)" /><use
   x="0"
   y="0"
   xlink:href="#path69"
   id="use73-4"
   transform="rotate(180,500,500)" /><use
   x="0"
   y="0"
   xlink:href="#path70"
   id="use74-5"
   transform="rotate(180,500,500)" /><use
   x="0"
   y="0"
   xlink:href="#path71"
   id="use75-5"
   transform="rotate(180,500,500)" /><use
   x="0"
   y="0"
   xlink:href="#path72"
   id="use76-1"
   transform="rotate(180,500,500)" /><use
   x="0"
   y="0"
   xlink:href="#path67"
   id="use77"
   transform="rotate(90,500,500)" /><use
   x="0"
   y="0"
   xlink:href="#path69"
   id="use78"
   transform="rotate(90,500,500)" /><use
   x="0"
   y="0"
   xlink:href="#path70"
   id="use79"
   transform="rotate(90,500,500)" /><use
   x="0"
   y="0"
   xlink:href="#path71"
   id="use80"
   transform="rotate(90,500,500)" /><use
   x="0"
   y="0"
   xlink:href="#path72"
   id="use81"
   transform="rotate(90,500,500)" /></svg>
